<?xml version="1.0" encoding="iso-8859-1"?>
<!-- Uploaded to: SVG Repo, www.svgrepo.com, Generator: SVG Repo Mixer Tools -->
<svg fill="#000000" version="1.1" id="Layer_1" xmlns="http://www.w3.org/2000/svg" xmlns:xlink="http://www.w3.org/1999/xlink" 
	 viewBox="0 0 512.001 512.001" xml:space="preserve">
<g>
	<g>
		<path d="M368.51,0h-225.02C72.852,0,15.383,57.469,15.383,128.107v383.894h166.708h147.818h166.708V128.107
			C496.617,57.469,439.148,0,368.51,0z M143.489,31.439h225.02c52.972,0,96.121,42.83,96.656,95.678H46.835
			C47.368,74.268,90.517,31.439,143.489,31.439z M319.429,480.561H192.57V332.589h126.859V480.561z M465.178,480.561H350.867
			V322.109c0-11.557-9.402-20.959-20.959-20.959H182.091c-11.557,0-20.959,9.402-20.959,20.959v158.452H46.822V158.555h418.356
			V480.561z"/>
	</g>
</g>
<g>
	<g>
		<rect x="227.877" y="363.566" width="61.775" height="31.439"/>
	</g>
</g>
<g>
	<g>
		<rect x="227.877" y="420.837" width="61.775" height="31.439"/>
	</g>
</g>
<g>
	<g>
		<rect x="380.385" y="193.043" width="54.052" height="31.439"/>
	</g>
</g>
</svg>